<svg id="noun_Image_834189" xmlns="http://www.w3.org/2000/svg" width="17" height="17" viewBox="0 0 17 17">
  <g id="Group_12632" data-name="Group 12632">
    <g id="Group_12631" data-name="Group 12631">
      <g id="Group_12630" data-name="Group 12630">
        <path id="Path_17204" data-name="Path 17204" d="M8.521,16.108,6.5,13.522,4,18H17L12,9.537ZM2,6A2,2,0,0,1,3.991,4H17.009A1.992,1.992,0,0,1,19,6V19a2,2,0,0,1-1.991,2H3.991A1.992,1.992,0,0,1,2,19Zm5,5A2,2,0,1,0,5,9,2,2,0,0,0,7,11Z" transform="translate(-2 -4)" fill="#b4b4c9" fill-rule="evenodd"/>
      </g>
    </g>
  </g>
</svg>
