<svg id="Camada_2" data-name="Camada 2" xmlns="http://www.w3.org/2000/svg" width="17.907" height="18.405" viewBox="0 0 17.907 18.405">
  <g id="Your_Icon" data-name="Your Icon">
    <path id="Path_17156" data-name="Path 17156" d="M42.692,1.032h0a4.706,4.706,0,0,0-6.538.643L34.778,3.322a1.174,1.174,0,0,0,1.8,1.505L37.956,3.18A2.341,2.341,0,0,1,41.3,2.932a2.391,2.391,0,0,1,.2,3.3L38.637,9.655l-.026.029a2.291,2.291,0,0,1-.531.453,2.338,2.338,0,0,1-2.943-.393,1.174,1.174,0,0,0-1.718,1.6,4.689,4.689,0,0,0,4.227,1.424,4.8,4.8,0,0,0,.707-.181,4.66,4.66,0,0,0,2.09-1.432L43.3,7.74A4.824,4.824,0,0,0,44.384,4.2,4.608,4.608,0,0,0,42.692,1.032Z" transform="translate(-26.499 -0.001)" fill="#b4b4c9"/>
    <path id="Path_17157" data-name="Path 17157" d="M7.745,36.114l-1.23,1.472a2.391,2.391,0,0,1-3.281.394,2.341,2.341,0,0,1-.351-3.338l2.91-3.484.021-.024a2.289,2.289,0,0,1,.531-.453,2.332,2.332,0,0,1,2.732.191,2.36,2.36,0,0,1,.253.245,1.173,1.173,0,0,0,.894.4A1.159,1.159,0,0,0,11.1,31.1l.014-.017a1.158,1.158,0,0,0-.02-1.516,4.686,4.686,0,0,0-7.108.1l-2.9,3.474a4.706,4.706,0,0,0,.53,6.548,4.608,4.608,0,0,0,3.416,1.1q.22-.018.436-.056a4.823,4.823,0,0,0,2.857-1.644l1.226-1.467a1.174,1.174,0,0,0-1.8-1.505Z" transform="translate(0 -22.399)" fill="#b4b4c9"/>
  </g>
</svg>
