<svg xmlns="http://www.w3.org/2000/svg" width="11.875" height="14.395" viewBox="0 0 11.875 14.395">
  <path id="Path_17211" data-name="Path 17211" d="M4.443-11.895v3.174H7.979a2.947,2.947,0,0,0,1.538-.356,1.355,1.355,0,0,0,.591-1.265,1.288,1.288,0,0,0-.781-1.328,5.529,5.529,0,0,0-1.719-.225Zm0,5.557V-2.5H7.979a3.47,3.47,0,0,0,1.475-.254,1.808,1.808,0,0,0,.957-1.8,1.544,1.544,0,0,0-.928-1.543,3.717,3.717,0,0,0-1.455-.244Zm4.121-8.057a4.447,4.447,0,0,1,3.75,1.533,3.648,3.648,0,0,1,.664,2.2,3.213,3.213,0,0,1-.664,2.119,3.428,3.428,0,0,1-1.094.82,3.209,3.209,0,0,1,1.665,1.27,3.8,3.8,0,0,1,.562,2.109A4.192,4.192,0,0,1,12.8-2.051,3.978,3.978,0,0,1,11.777-.918,4,4,0,0,1,10.142-.2,10.083,10.083,0,0,1,8.1,0H1.572V-14.395Z" transform="translate(-1.572 14.395)" fill="#b4b4c9"/>
</svg>
