<svg xmlns="http://www.w3.org/2000/svg" width="20.762" height="20.348" viewBox="0 0 20.762 20.348">
  <g id="noun_code_3532081" transform="translate(0.125 0.212)">
    <path id="Path_17198" data-name="Path 17198" d="M6.21,6.79a1,1,0,0,0-1.42,0l-4.5,4.5a1,1,0,0,0,0,1.42l4.5,4.5a1,1,0,1,0,1.42-1.42L2.41,12l3.8-3.79a1,1,0,0,0,0-1.42Z" transform="translate(0.006 -2.017)" fill="#b4b4c9" stroke="#b4b4c9" stroke-width="0.25"/>
    <path id="Path_17199" data-name="Path 17199" d="M19.21,6.79a1,1,0,0,0-1.42,1.42L21.59,12l-3.8,3.79a1,1,0,1,0,1.42,1.42l4.5-4.5a1,1,0,0,0,0-1.42Z" transform="translate(-3.494 -2.017)" fill="#b4b4c9" stroke="#b4b4c9" stroke-width="0.25"/>
    <path id="Path_17200" data-name="Path 17200" d="M9.447.107a1,1,0,0,0-1.34.44l-8,16a1,1,0,0,0,.44,1.34A.93.93,0,0,0,1,18a1,1,0,0,0,.89-.55l8-16A1,1,0,0,0,9.447.107Z" transform="matrix(0.966, -0.259, 0.259, 0.966, 3, 2.586)" fill="#b4b4c9" stroke="#b4b4c9" stroke-width="0.25"/>
  </g>
</svg>
